HIERARCHY
ROOT hip
{
	OFFSET 0.000000 0.000000 0.000000 
	CHANNELS 6 Xposition Yposition Zposition Xrotation Zrotation Yrotation
	JOINT abdomen
	{
		OFFSET 0.000000 3.402643 0.000000 
		CHANNELS 3 Xrotation Zrotation Yrotation
		JOINT chest
		{
			OFFSET 0.000000 8.438565 -0.680529 
			CHANNELS 3 Xrotation Zrotation Yrotation
			JOINT neck
			{
				OFFSET 0.000000 10.207942 -0.272212 
				CHANNELS 3 Xrotation Zrotation Yrotation
				JOINT head
				{
					OFFSET 0.000000 3.130431 0.000000 
					CHANNELS 3 Xrotation Zrotation Yrotation
					End Site
					{
						OFFSET 0.000000 3.130435 0.000000 
					}
				}
			}
			JOINT lCollar
			{
				OFFSET 3.470700 6.669187 -0.816635 
				CHANNELS 3 Yrotation Zrotation Xrotation
				JOINT lShldr
				{
					OFFSET 3.198488 0.000000 0.000000 
					CHANNELS 3 Zrotation Yrotation Xrotation
					JOINT lForeArm
					{
						OFFSET 10.139888 0.000000 0.000000 
						CHANNELS 3 Yrotation Zrotation Xrotation
						JOINT lHand
						{
							OFFSET 8.370511 0.000000 0.000000 
							CHANNELS 3 Zrotation Yrotation Xrotation
							End Site
							{
								OFFSET 4.083176 0.000000 0.000000 
							}
						}
					}
				}
			}
			JOINT rCollar
			{
				OFFSET -3.470700 6.669187 -0.816635 
				CHANNELS 3 Yrotation Zrotation Xrotation
				JOINT rShldr
				{
					OFFSET -3.198488 0.000000 0.000000 
					CHANNELS 3 Zrotation Yrotation Xrotation
					JOINT rForeArm
					{
						OFFSET -10.139888 0.000000 0.000000 
						CHANNELS 3 Yrotation Zrotation Xrotation
						JOINT rHand
						{
							OFFSET -8.370511 0.000000 0.000000 
							CHANNELS 3 Zrotation Yrotation Xrotation
							End Site
							{
								OFFSET -4.083176 0.000000 0.000000 
							}
						}
					}
				}
			}
		}
	}
	JOINT lThigh
	{
		OFFSET 5.308129 -1.633274 1.361059 
		CHANNELS 3 Xrotation Zrotation Yrotation
		JOINT lShin
		{
			OFFSET -2.041588 -20.007561 0.000000 
			CHANNELS 3 Xrotation Zrotation Yrotation
			JOINT lFoot
			{
				OFFSET 0.000000 -19.190928 -1.224953 
				CHANNELS 3 Xrotation Yrotation Zrotation
				End Site
				{
					OFFSET 0.000000 -2.449906 4.627600 
				}
			}
		}
	}
	JOINT rThigh
	{
		OFFSET -5.308129 -1.633274 1.361059 
		CHANNELS 3 Xrotation Zrotation Yrotation
		JOINT rShin
		{
			OFFSET 2.041588 -20.007561 0.000000 
			CHANNELS 3 Xrotation Zrotation Yrotation
			JOINT rFoot
			{
				OFFSET 0.000000 -19.190928 -1.224953 
				CHANNELS 3 Xrotation Yrotation Zrotation
				End Site
				{
					OFFSET 0.000000 -2.449906 4.627600 
				}
			}
		}
	}
}
MOTION
Frames: 15
Frame Time: 0.016667
2.217929 54.014767 -0.532216 -1.581192 3.084928 1.467450 25.969513 -3.416985 -1.552987 -2.110800 0.078112 -1.601561 -9.728034 -1.269283 0.162402 11.802014 -0.154469 -33.642731 -3.919619 -5.707790 -0.293186 -56.505844 19.020082 -17.503084 -12.440895 -5.000000 45.000000 -24.841293 15.393139 25.249676 9.671485 9.813536 -0.510779 62.007935 -19.647905 -23.374043 7.987200 5.000000 45.000000 17.166058 -19.468262 24.177839 10.470625 6.568554 1.064282 -1.221364 -5.024737 -0.053220 -6.878531 6.984358 -6.838679 15.284266 -9.371236 -14.750475 -2.839896 2.496520 -0.107363 -2.771113 -8.437186 9.728140 
2.231144 54.012108 -0.503584 -1.522599 3.084928 1.467451 25.949209 -3.380777 -1.538137 -2.081156 0.058584 -1.591796 -9.786740 -1.307905 0.168245 11.730354 -0.178859 -33.642792 -3.929588 -5.746799 -0.295199 -56.442734 19.021622 -17.504496 -12.438825 -5.000000 45.000000 -24.950159 15.535053 24.929199 9.671131 9.774529 -0.508759 62.003616 -19.674173 -23.394737 8.074163 5.000000 45.000000 17.300358 -19.996502 24.065529 10.437449 6.532535 1.127802 -1.181222 -4.964592 -0.078487 -6.995464 6.915382 -6.854487 15.306821 -9.373259 -14.780863 -2.888541 2.485811 -0.100053 -2.812375 -8.462016 9.780076 
2.244358 54.009449 -0.474954 -1.463479 3.084914 1.477202 25.939053 -3.362683 -1.530568 -2.051688 0.048820 -1.591797 -9.835683 -1.346528 0.174087 11.653285 -0.195119 -33.642830 -3.939507 -5.776057 -0.296708 -56.379635 19.023193 -17.509109 -12.430260 -5.000000 45.000000 -25.048092 15.679736 24.606171 9.670867 9.745271 -0.507244 62.002544 -19.696421 -23.428284 8.159393 5.000000 45.000000 17.426075 -20.519747 23.952662 10.400023 6.484320 1.180073 -1.131988 -4.875296 -0.065422 -7.051447 6.820468 -6.916269 15.310864 -9.384360 -14.792727 -2.936748 2.475597 -0.082977 -2.796110 -8.508255 9.845714 
2.262778 54.008915 -0.443931 -1.418335 3.085007 1.408416 25.927147 -3.324833 -1.494513 -2.061454 0.048820 -1.582031 -9.865100 -1.385151 0.179929 11.628031 -0.260277 -33.603928 -3.921120 -5.804647 -0.307911 -56.378731 18.996117 -17.503725 -12.381685 -5.000000 45.000000 -25.089142 15.752144 24.621231 9.670956 9.755024 -0.507749 61.946648 -19.675598 -23.375566 8.068845 5.000000 45.000000 17.431778 -20.623611 23.917223 10.480976 6.451390 1.263637 -1.258791 -4.904764 -0.054343 -7.024829 6.832432 -6.847936 15.288984 -9.432447 -14.703074 -2.936502 2.475271 -0.092729 -2.794556 -8.515976 9.905905 
2.282499 54.008915 -0.412312 -1.394000 3.075357 1.320652 25.944313 -3.299940 -1.454080 -2.071381 0.058584 -1.552734 -9.894488 -1.414118 0.184311 11.617796 -0.333668 -33.555355 -3.891983 -5.833909 -0.309420 -56.385864 18.960693 -17.490393 -12.319608 -5.000000 45.000000 -25.138603 15.802481 24.694090 9.680898 9.774529 -0.508759 61.878139 -19.640738 -23.307360 7.937608 5.000000 45.000000 17.402489 -20.622116 23.901955 10.580847 6.423964 1.336819 -1.425050 -4.951335 -0.059035 -6.990340 6.944541 -6.767014 15.261168 -9.471563 -14.591001 -2.917176 2.466662 -0.110734 -2.759174 -8.517534 9.949593 
2.304954 54.008915 -0.382154 -1.359347 3.065687 1.242115 25.942875 -3.258413 -1.427136 -2.081301 0.068348 -1.533202 -9.875020 -1.433429 0.187232 11.616996 -0.407280 -33.477547 -3.910623 -5.854077 -0.300734 -56.453079 18.991741 -17.549837 -12.302433 -5.000000 45.000000 -25.308540 15.890969 24.888475 9.682825 9.802144 -0.519760 61.813690 -19.636826 -23.255379 7.845619 5.000000 45.000000 17.344507 -20.516340 24.041145 10.675037 6.422079 1.375092 -1.591465 -5.012506 -0.014325 -6.933480 6.909891 -6.720799 15.215937 -9.518182 -14.481084 -2.889843 2.467454 -0.128594 -2.767190 -8.567351 10.002828 
2.331512 54.008915 -0.354190 -1.333390 3.055990 1.183604 25.913441 -3.199267 -1.413475 -2.100967 0.078113 -1.494140 -9.777270 -1.404462 0.182851 11.644963 -0.481238 -33.360752 -4.008331 -5.863829 -0.301237 -56.592583 19.104874 -17.696329 -12.360334 -5.000000 45.000000 -25.696360 16.024679 25.228949 9.683187 9.841151 -0.521778 61.778828 -19.648272 -23.258402 7.812226 5.000000 45.000000 17.246782 -20.263664 24.405754 10.776848 6.404471 1.360363 -1.776993 -5.054527 -0.027032 -6.877841 7.011627 -6.633605 15.160651 -9.577829 -14.382387 -2.810783 2.486456 -0.085643 -2.797986 -8.649833 10.010522 
2.358070 54.008915 -0.326224 -1.297840 3.036525 1.125091 25.894386 -3.123871 -1.414390 -2.120624 0.087878 -1.464843 -9.689028 -1.367301 0.167355 11.667277 -0.547225 -33.243927 -4.115857 -5.883334 -0.302243 -56.732681 19.231005 -17.843016 -12.406675 -5.000000 45.000000 -26.074829 16.180426 25.583473 9.672106 9.881803 -0.514313 61.746090 -19.664356 -23.266497 7.775546 5.000000 45.000000 17.156401 -20.002138 24.773666 10.891392 6.422390 1.351854 -1.962253 -5.122246 -0.019176 -6.845471 7.029430 -6.563406 15.120659 -9.616293 -14.280107 -2.740921 2.505169 -0.092084 -2.859674 -8.705948 10.006621 
2.380770 54.004921 -0.301115 -1.298168 3.046300 1.115341 25.923677 -3.120810 -1.424260 -2.082155 0.117169 -1.542967 -9.689140 -1.327217 0.171166 11.668769 -0.507065 -33.126476 -4.125623 -5.883334 -0.302243 -56.855598 19.240793 -17.948717 -12.360717 -5.000000 45.000000 -26.319252 16.272591 25.945343 9.586166 9.909433 -0.525313 61.659924 -19.570854 -23.159868 7.801651 5.000000 45.000000 17.049511 -20.177956 25.067705 10.919842 6.373007 1.323742 -1.970975 -5.139188 0.001757 -6.888403 7.117384 -6.489251 15.140711 -9.655791 -14.228942 -2.688413 2.491887 -0.059234 -2.945717 -8.776938 9.984150 
2.403475 54.000935 -0.276006 -1.298833 3.065847 1.095318 25.943451 -3.117359 -1.433678 -2.053478 0.146460 -1.611325 -9.698793 -1.288594 0.165323 11.665184 -0.458554 -33.018810 -4.125675 -5.893086 -0.302746 -56.978489 19.250261 -18.051306 -12.308939 -5.000000 45.000000 -26.554520 16.364359 26.309704 9.498641 9.948457 -0.527333 61.564259 -19.480944 -23.053555 7.829811 5.000000 45.000000 16.950472 -20.357382 25.358442 10.975309 6.337378 1.336216 -1.991773 -5.152446 -0.005926 -6.917664 7.150667 -6.430180 15.135028 -9.696851 -14.167120 -2.621465 2.462890 -0.063751 -2.994549 -8.835958 10.000276 
2.423146 53.997738 -0.254246 -1.286395 3.095098 1.134851 25.964251 -3.131259 -1.481673 -2.024738 0.165984 -1.708980 -9.708344 -1.211348 0.153638 11.664989 -0.368645 -32.979324 -4.155181 -5.932096 -0.304758 -57.027763 19.286179 -18.152601 -12.269032 -5.000000 45.000000 -26.607212 16.469521 26.491890 9.430465 9.967973 -0.528344 61.504486 -19.406593 -22.986124 7.818183 5.000000 45.000000 16.775965 -20.343082 25.499161 10.944570 6.288598 1.259645 -1.943295 -5.160110 0.000049 -6.953179 7.146108 -6.419580 15.157467 -9.733064 -14.225832 -2.625391 2.456980 -0.092885 -3.044771 -8.781852 10.030909 
2.440803 53.995083 -0.234720 -1.261604 3.143828 1.212864 25.966230 -3.168832 -1.549658 -1.995640 0.165980 -1.806636 -9.708074 -1.105136 0.137570 11.668780 -0.253900 -32.998421 -4.204327 -5.990611 -0.307777 -57.042366 19.323135 -18.262575 -12.237046 -5.000000 45.000000 -26.534475 16.580664 26.558268 9.362381 9.997241 -0.529859 61.475262 -19.347221 -22.936153 7.782161 5.000000 45.000000 16.566553 -20.207808 25.534334 10.862437 6.227785 1.132787 -1.817486 -5.143502 -0.010189 -7.030293 7.211490 -6.409243 15.178687 -9.753581 -14.359825 -2.632430 2.405644 -0.101089 -3.067864 -8.774546 10.063794 
2.457673 53.991886 -0.215496 -1.237987 3.182812 1.271910 25.977402 -3.191721 -1.601779 -1.966541 0.165976 -1.894526 -9.707876 -1.018234 0.124424 11.667216 -0.130987 -33.037216 -4.253422 -6.039373 -0.310292 -57.073540 19.356812 -18.362621 -12.205098 -5.000000 45.000000 -26.500509 16.682310 26.631433 9.303971 10.016755 -0.530869 61.433262 -19.309439 -22.904825 7.760432 5.000000 45.000000 16.365549 -20.056414 25.576757 10.803380 6.188124 1.048254 -1.699502 -5.163568 -0.038758 -7.112928 7.189201 -6.415148 15.210148 -9.793444 -14.468164 -2.643580 2.377627 -0.120082 -3.086999 -8.694138 10.106384 
2.471416 53.986565 -0.197495 -1.238859 3.192599 1.252411 26.007938 -3.221044 -1.635205 -1.947038 0.165975 -1.904291 -9.688405 -0.968494 0.126774 11.670856 -0.016341 -33.212902 -4.312069 -6.049126 -0.310795 -57.124359 19.341125 -18.426283 -12.157717 -5.000000 45.000000 -26.622826 16.750477 26.646814 9.274858 10.036263 -0.531879 61.363449 -19.332069 -22.908003 7.777829 5.000000 45.000000 16.242273 -19.820755 25.635296 10.746203 6.169577 1.046154 -1.512887 -5.169898 -0.045083 -7.241049 7.205072 -6.338253 15.220384 -9.812745 -14.472362 -2.646014 2.360273 -0.119413 -3.092089 -8.705124 10.113038 
2.485159 53.981243 -0.179492 -1.238980 3.212137 1.242663 26.038136 -3.244826 -1.655647 -1.917797 0.165974 -1.923822 -9.668771 -0.920216 0.119470 11.668417 0.106000 -33.388733 -4.370770 -6.068631 -0.311800 -57.185516 19.335756 -18.496025 -12.104648 -5.000000 45.000000 -26.739851 16.827589 26.681547 9.236073 10.065526 -0.533392 61.286228 -19.363239 -22.916256 7.792956 5.000000 45.000000 16.119354 -19.584846 25.696047 10.695556 6.139655 1.042493 -1.337813 -5.187188 -0.049425 -7.346648 7.228739 -6.290513 15.255864 -9.831265 -14.477551 -2.659429 2.345136 -0.119829 -3.128066 -8.693679 10.126329 
